<svg width="23" height="6" viewBox="0 0 23 6" fill="none" xmlns="http://www.w3.org/2000/svg">
<path d="M0.525 3.075C0.525 2.75833 0.583333 2.45833 0.7 2.175C0.816667 1.89167 0.975 1.65 1.175 1.45C1.39167 1.23333 1.63333 1.06667 1.9 0.95C2.18333 0.816667 2.49167 0.75 2.825 0.75C3.14167 0.75 3.44167 0.816667 3.725 0.95C4.00833 1.06667 4.25 1.23333 4.45 1.45C4.66667 1.65 4.83333 1.89167 4.95 2.175C5.08333 2.45833 5.15 2.75833 5.15 3.075C5.15 3.40833 5.08333 3.71667 4.95 4C4.83333 4.26667 4.66667 4.50833 4.45 4.725C4.25 4.925 4.00833 5.08333 3.725 5.2C3.44167 5.31667 3.14167 5.375 2.825 5.375C2.175 5.375 1.625 5.15833 1.175 4.725C0.741667 4.275 0.525 3.725 0.525 3.075ZM9.44492 3.075C9.44492 2.75833 9.50326 2.45833 9.61992 2.175C9.73659 1.89167 9.89492 1.65 10.0949 1.45C10.3116 1.23333 10.5533 1.06667 10.8199 0.95C11.1033 0.816667 11.4116 0.75 11.7449 0.75C12.0616 0.75 12.3616 0.816667 12.6449 0.95C12.9283 1.06667 13.1699 1.23333 13.3699 1.45C13.5866 1.65 13.7533 1.89167 13.8699 2.175C14.0033 2.45833 14.0699 2.75833 14.0699 3.075C14.0699 3.40833 14.0033 3.71667 13.8699 4C13.7533 4.26667 13.5866 4.50833 13.3699 4.725C13.1699 4.925 12.9283 5.08333 12.6449 5.2C12.3616 5.31667 12.0616 5.375 11.7449 5.375C11.0949 5.375 10.5449 5.15833 10.0949 4.725C9.66159 4.275 9.44492 3.725 9.44492 3.075ZM18.3648 3.075C18.3648 2.75833 18.4232 2.45833 18.5398 2.175C18.6565 1.89167 18.8148 1.65 19.0148 1.45C19.2315 1.23333 19.4732 1.06667 19.7398 0.95C20.0232 0.816667 20.3315 0.75 20.6648 0.75C20.9815 0.75 21.2815 0.816667 21.5648 0.95C21.8482 1.06667 22.0898 1.23333 22.2898 1.45C22.5065 1.65 22.6732 1.89167 22.7898 2.175C22.9232 2.45833 22.9898 2.75833 22.9898 3.075C22.9898 3.40833 22.9232 3.71667 22.7898 4C22.6732 4.26667 22.5065 4.50833 22.2898 4.725C22.0898 4.925 21.8482 5.08333 21.5648 5.2C21.2815 5.31667 20.9815 5.375 20.6648 5.375C20.0148 5.375 19.4648 5.15833 19.0148 4.725C18.5815 4.275 18.3648 3.725 18.3648 3.075Z" fill="#21B5B4"/>
</svg>
