<!-- icon666.com - MILLIONS vector ICONS FREE --><svg id="Layer_1" viewBox="0 0 60 60" xmlns="http://www.w3.org/2000/svg"><g><path d="m15 20h-6c-.55 0-1 .45-1 1v32c0 .55.45 1 1 1h6c.55 0 1-.45 1-1v-32c0-.55-.45-1-1-1z" fill="#000000" style="fill: rgb(209, 209, 209);"></path><path d="m39 31h-6c-.55 0-1 .45-1 1v21c0 .55.45 1 1 1h6c.55 0 1-.45 1-1v-21c0-.55-.45-1-1-1z" fill="#000000" style="fill: rgb(209, 209, 209);"></path><path d="m52 13v40c0 .55-.45 1-1 1h-6c-.55 0-1-.45-1-1v-40c0-.55.45-1 1-1h6c.55 0 1 .45 1 1z" fill="#000000" style="fill: rgb(209, 209, 209);"></path><path d="m28 7v46c0 .55-.45 1-1 1h-6c-.55 0-1-.45-1-1v-46c0-.55.45-1 1-1h6c.55 0 1 .45 1 1z" fill="#000000" style="fill: rgb(209, 209, 209);"></path></g></svg>