<!-- icon666.com - MILLIONS vector ICONS FREE --><svg fill="none" viewBox="0 0 24 24" xmlns="http://www.w3.org/2000/svg" xmlns:xlink="http://www.w3.org/1999/xlink"><linearGradient id="paint0_linear_329_7599" gradientUnits="userSpaceOnUse" x1="11.995" x2="11.995" y1="2" y2="22"><stop offset="0" stop-color="#67b26f"></stop><stop offset="1" stop-color="#4ca2cd"></stop></linearGradient><path d="m16.19 2h-8.38c-3.64 0-5.81 2.17-5.81 5.81v8.37c0 3.65 2.17 5.82 5.81 5.82h8.37c3.64 0 5.81-2.17 5.81-5.81v-8.38c.01-3.64-2.16-5.81-5.8-5.81zm.59 7.7-5.67 5.67c-.14.14-.33.22-.53.22s-.39-.08-.53-.22l-2.83-2.83c-.29-.29-.29-.77 0-1.06s.77-.29 1.06 0l2.3 2.3 5.14-5.14c.29-.29.77-.29 1.06 0s.29.76 0 1.06z" fill="url(#paint0_linear_329_7599)" style="fill: rgb(19, 125, 118);"></path></svg>