<!-- icon666.com - MILLIONS vector ICONS FREE --><svg viewBox="0 0 64 64" xmlns="http://www.w3.org/2000/svg"><g id="Layer_33" data-name="Layer 33"><path d="m28.61 55.32a.76.76 0 0 1 -.75-.75v-19.32l-12.18-12h-2.25a.75.75 0 0 1 -.75-.75v-5.07a.74.74 0 0 1 .75-.75h37.14a.74.74 0 0 1 .75.75v5.09a.75.75 0 0 1 -.75.75h-2.25l-12.18 12v15.59a.74.74 0 0 1 -.39.65l-6.75 3.72a.74.74 0 0 1 -.39.09zm-14.43-33.55h1.82a.74.74 0 0 1 .53.21l12.61 12.42a.75.75 0 0 1 .22.53v18.37l5.28-2.89v-15.48a.75.75 0 0 1 .22-.53l12.63-12.4a.74.74 0 0 1 .53-.21h1.8v-3.61h-35.64z"></path><path d="m32 60.75a28.75 28.75 0 1 1 28.75-28.75 28.79 28.79 0 0 1 -28.75 28.75zm0-56a27.25 27.25 0 1 0 27.25 27.25 27.28 27.28 0 0 0 -27.25-27.25z"></path></g></svg>