<!-- icon666.com - MILLIONS vector ICONS FREE --><svg id="Layer_1" enable-background="new 0 0 24 24" viewBox="0 0 24 24" xmlns="http://www.w3.org/2000/svg" xmlns:xlink="http://www.w3.org/1999/xlink"><linearGradient id="SVGID_1_" gradientUnits="userSpaceOnUse" x1="12" x2="12" y1="24" y2="0"><stop offset="0" stop-color="#ed3a83"></stop><stop offset="1" stop-color="#ff1acf"></stop></linearGradient><circle cx="12" cy="12" fill="url(#SVGID_1_)" r="12" style="fill: rgb(34, 186, 186);"></circle><path d="m7.2 5.5c.3-.3.8-.3 1.2 0l3.4 3.4c.3.3.3.8 0 1.2-.3.3-.8.3-1.2 0l-2-2v9.8c0 .5-.3.8-.8.8s-.8-.3-.8-.8v-9.8l-2 2c-.3.3-.8.3-1.2 0-.3-.3-.3-.8 0-1.2 0 0 3.4-3.4 3.4-3.4zm8.2 10.4v-9.8c0-.5.3-.8.8-.8s.8.3.8.8v9.8l1.9-1.9c.3-.3.8-.3 1.2 0s.3.8 0 1.2l-3.4 3.4c-.3.3-.8.3-1.2 0l-3.4-3.4c-.3-.3-.3-.8 0-1.2.3-.3.8-.3 1.2 0z" fill="#fff"></path></svg>