<!-- icon666.com - MILLIONS vector ICONS FREE --><svg id="Glyph" viewBox="0 0 64 64" xmlns="http://www.w3.org/2000/svg"><path d="m57.56 43.85c-1.56367-1.28272-3.245-2.64922-4.81-3.91a8.10913 8.10913 0 0 0 -10.96.67 3.12089 3.12089 0 0 1 -4.54.15l-14.01-14.01a3.12183 3.12183 0 0 1 .14006-4.53 8.12411 8.12411 0 0 0 .55994-11.12c-1.22-1.51-2.55-3.15-3.79-4.66a6.705 6.705 0 0 0 -10.3-.00988c-6.5084 6.67746-8.39619 18.34368-1.39982 24.95a128.04293 128.04293 0 0 0 11.09982 13.08988 134.94843 134.94843 0 0 0 13.07 11.09 14.30977 14.30977 0 0 0 8.84 4.31 19.45159 19.45159 0 0 0 14.64-4.51l1.47-1.21a6.70507 6.70507 0 0 0 -.01-10.3z" fill="rgb(0,0,0)" style="fill: rgb(34, 186, 186);"></path></svg>